<?xml version="1.0" encoding="utf-8"?>
<!-- Generator: Adobe Illustrator 21.0.0, SVG Export Plug-In . SVG Version: 6.00 Build 0)  -->
<svg version="1.1" id="Layer_1" xmlns="http://www.w3.org/2000/svg" xmlns:xlink="http://www.w3.org/1999/xlink" x="0px" y="0px"
	 viewBox="0 0 282.1 255" style="enable-background:new 0 0 282.1 255;" xml:space="preserve">
<style type="text/css">
	.st0{fill-rule:evenodd;clip-rule:evenodd;}
</style>
<path class="st0" d="M273.3,47.8c0-22-19.7-39.8-44.1-39.8H52.9C28.6,8,8.8,25.8,8.8,47.8v159.4c0,22,19.7,39.8,44.1,39.8h88v-79.6
	l-26.3-0.1v-39.8l26.4,0.1l0.1-32c0-12.4,9.9-31.9,35.3-31.9h3.3c41,0,40.3,0.1,40.3,0.1v39.8h-26.8c0,0-8.5,0.1-8.5,8v15.9
	l26.9-0.1v39.8h-26.4V247h44.1c24.3,0,44.1-17.9,44.1-39.8V47.8z M202.7,159.4v-23.9l-18.1,0.1h-8.6v-8v-15.9
	c0-10.2,8.7-15.9,16.8-15.9h18.5v-24h-35.2c-14,0-26.4,11-26.4,23.9v39.8h-26.4v23.9h26.4l-0.5,87.7h27v-87.7H202.7z M229.2,255
	H52.9C23.7,255,0,233.6,0,207.2V47.8C0,21.4,23.7,0,52.9,0h176.3c29.2,0,52.9,21.4,52.9,47.8v159.4C282.1,233.6,258.4,255,229.2,255
	z"/>
</svg>
