<?xml version="1.0" encoding="utf-8"?>
<!-- Generator: Adobe Illustrator 21.0.0, SVG Export Plug-In . SVG Version: 6.00 Build 0)  -->
<svg version="1.1" id="Layer_1" xmlns="http://www.w3.org/2000/svg" xmlns:xlink="http://www.w3.org/1999/xlink" x="0px" y="0px"
	 viewBox="0 0 218 218" style="enable-background:new 0 0 218 218;" xml:space="preserve">
<style type="text/css">
	.st0{fill:#FFFFFF;}
</style>
<path class="st0" d="M109,81.7c-18.8,0-34.1,15.3-34.1,34.1s15.3,34.1,34.1,34.1s34.1-15.3,34.1-34.1S127.8,81.7,109,81.7z
	 M109,156.7c-22.5,0-40.9-18.3-40.9-40.9S86.4,74.9,109,74.9s40.9,18.3,40.9,40.9S131.5,156.7,109,156.7z M109,61.3
	c-30.1,0-54.5,24.4-54.5,54.5s24.4,54.5,54.5,54.5s54.5-24.4,54.5-54.5S139.1,61.3,109,61.3z M109,177.1
	c-33.9,0-61.3-27.5-61.3-61.3S75.1,54.5,109,54.5s61.3,27.5,61.3,61.3S142.8,177.1,109,177.1z M190.7,34.1c0-3.7-3.1-6.8-6.8-6.8
	h-13.6c-3.7,0-6.8,3.1-6.8,6.8v13.6c0,3.7,3.1,6.8,6.8,6.8h13.6c3.7,0,6.8-3.1,6.8-6.8V34.1z M187.3,61.3h-20.4
	c-5.7,0-10.2-4.6-10.2-10.2V30.7c0-5.7,4.6-10.2,10.2-10.2h20.4c5.7,0,10.2,4.6,10.2,10.2v20.4C197.5,56.7,193,61.3,187.3,61.3z
	 M177.1,197.5H40.9c-11.3,0-20.4-9.1-20.4-20.4V81.7h29.6c-1.3,2.2-2.5,4.5-3.5,6.8H27.2v88.6c0,7.5,6.1,13.6,13.6,13.6H177
	c7.5,0,13.6-6.1,13.6-13.6V88.6h-19.3c-1-2.3-2.2-4.6-3.5-6.8h29.6v95.4C197.5,188.4,188.4,197.5,177.1,197.5z M211.2,40.9
	c0-18.8-15.3-34.1-34.1-34.1H40.9C22.1,6.8,6.8,22.1,6.8,40.9v136.2c0,18.8,15.3,34.1,34.1,34.1h136.2c18.8,0,34.1-15.3,34.1-34.1
	L211.2,40.9L211.2,40.9z M177.1,218H40.9C18.3,218,0,199.7,0,177.1V40.9C0,18.3,18.3,0,40.9,0h136.2C199.7,0,218,18.3,218,40.9
	v136.2C218,199.7,199.7,218,177.1,218z"/>
</svg>
