<?xml version="1.0" encoding="utf-8"?>
<!-- Generator: Adobe Illustrator 21.0.0, SVG Export Plug-In . SVG Version: 6.00 Build 0)  -->
<svg version="1.1" id="Layer_1" xmlns="http://www.w3.org/2000/svg" xmlns:xlink="http://www.w3.org/1999/xlink" x="0px" y="0px"
	 viewBox="0 0 485.6 703.3" style="enable-background:new 0 0 485.6 703.3;" xml:space="preserve">
<path d="M126.9,264.5c-0.7,0.6-1.3,1.2-1.8,1.9c-0.5,0.6-1.1,1.2-1.8,1.9c-1.2,1.5-2.7,3-4.4,4.7c-1.7,1.6-3.2,3.1-4.7,4.3
	c-6.4,5.5-13.7,8.8-21.9,9.8c-8.2,1-15.8-2.5-22.7-10.6c-5.1-5.9-9-16.2-11.8-30.7c-2.8-14.5-3.3-33.7-1.4-57.6
	c-7.8,6.7-15.7,10.8-23.6,12.2c-7.9,1.4-15.1-1.7-21.6-9.3c-6.3-7.4-9.9-15.6-10.8-24.8c-0.9-9.2-0.3-18.1,1.5-26.7
	c1.9-8.6,4.4-16.4,7.5-23.4c3.1-7,5.4-12,7-15l0.6,0.7l0.1-0.7c0.5-1.3,1.1-2.4,1.6-3.2c0.3-0.6,0.6-1.2,1-1.8
	c0.4-0.5,0.7-1.1,1-1.8c3-4.7,5.8-8.3,8.3-10.9c2.5-2.6,4.6-4.6,6.3-6l0.4-0.3l0.4-0.3c0.2-0.2,0.4-0.2,0.5-0.1
	c0.1,0.1,0.3,0.1,0.5-0.1l1.4-1.2c0.2-0.2,0.5-0.3,0.9-0.4c0.3-0.1,0.9-0.4,1.6-1l0.6,0.7c-3.1,3.1-6.5,6.7-10,10.7
	c-3.5,4.1-6.6,8-9.1,11.8c-0.5,0.4-0.7,0.8-0.8,1.3c0,0.4-0.3,0.9-0.8,1.3c-0.3,0.7-0.7,1.3-1.1,1.9c-0.5,0.6-0.8,1.2-0.8,1.6
	l-1.6,3.2l-0.8,1.3l0.4-0.3c0,0.4-0.2,0.8-0.4,1c-0.2,0.2-0.4,0.5-0.4,1l-2,4.2c-0.3,0.7-1,2.7-2.1,6.2c-1.2,3.5-2.4,7.8-3.7,13.1
	l-0.2,2L7,141.3l0.4-0.3l-0.2,2.7L7,145l-0.3-0.4c-1,7.5-0.8,15.4,0.5,23.7c1.4,8.3,4.2,15.4,8.4,21.3c6.9,5.2,14.1,6.4,21.4,3.6
	c7.3-2.8,14.1-6.6,20.2-11.5c1.6-12.1,3.9-25,7-38.8s6.6-27.3,10.6-40.7c4-13.4,8.3-26.1,12.7-38.2C92,52,96,41.6,99.6,32.7
	c0.1-0.9,0.4-1.7,1-2.4c0.6-0.7,1.1-1.6,1.4-2.7c1.9-4.5,4.2-9.6,6.8-15.1c2.6-5.6,5-9.3,7.2-11.1c0.5-0.4,1.2-0.8,2.1-1.2
	c0.9-0.4,2.2,0,3.9,1c5.6,5.1,8.9,12,9.8,20.7c0.9,8.7,0.6,18-0.9,27.8c-1.5,9.8-3.8,19.4-6.9,28.8c-3.1,9.4-5.7,17.4-8,23.9
	c-4.1,13.5-10.1,26-18,37.5c-7.9,11.5-16,22.1-24.2,31.7c-2.9,2.4-4.8,6.7-6,12.9C66.5,190.4,66,197,66,204c0,7,0.3,13.7,1,20.2
	c0.6,6.5,1.2,11.3,1.9,14.5c0.2,2.7,1.1,7.1,2.5,13.4c1.4,6.2,4.4,11.9,8.9,17.2c2.9,3.3,6.5,5.4,11,6.3c4.5,0.9,10.5-1.9,18.1-8.5
	c8.3-7.1,16.3-15.2,23.8-24.2c7.6-9,14.4-18,20.5-26.9c6.1-9,11.6-17.5,16.4-25.6c4.8-8.1,8.8-14.7,11.8-19.8l0.6,0.7
	c0.5-0.4,0.7-1,0.8-1.9c1.2-1,2.3-0.9,3.3,0.3c-0.5,0.4-1.4,2.2-2.7,5.5c-2.9,6.2-8.7,17.4-17.4,33.5
	C158,224.8,144.7,243.4,126.9,264.5z M16.6,106.4c0.2-0.2,0.4-0.5,0.4-1c-0.2,0.2-0.3,0.4-0.2,0.5C16.9,106,16.9,106.2,16.6,106.4z
	 M18.2,103.2c0.2-0.2,0.4-0.5,0.4-1c0.5-0.4,0.7-0.8,0.8-1.3C18.8,102.3,18.4,103,18.2,103.2z M73.5,147.4c-0.4,2-0.6,3.8-0.8,5.6
	c-0.1,1.8-0.4,3.6-0.8,5.6l-1.7,9.5c5.4-6.3,10.9-13.4,16.6-21.4c5.7-8,10.7-16.3,14.9-24.9c3.5-7.5,7-16.6,10.6-27.4
	c3.6-10.7,6.5-21.7,8.7-32.8c2.2-11.2,3.2-21.6,3.1-31.4c-0.1-9.8-2.3-17.4-6.6-22.8c-1.3,2.3-3.5,7.4-6.5,15.2
	c-3,7.8-6.6,17.7-10.6,29.9c-4,12.1-8.4,26.2-13,42.2C82.7,110.6,78.1,128.2,73.5,147.4z"/>
<path d="M208.2,128c-2.7,5.6-5.5,10.7-8.2,15.2c-2.7,4.6-5.2,8.6-7.3,12c-2.7,10.5-4.8,19.3-6.4,26.3c-1.6,7-3,12.6-4.1,16.8
	c-1.2,4.2-2.2,7.2-3.1,9c-0.9,1.8-1.8,2.8-2.6,3.1c-1.2,0.4-2.5,0.3-3.9-0.4c-1.4-0.7-2.2-1.5-2.5-2.4c-0.5-1.5-0.4-3.1,0.3-4.8
	c0.7-1.7,0.9-3.1,0.6-3.9l1.4-7.4c2-9.6,4.9-21,8.7-34c3.8-13.1,8.1-26.5,13-40.3c4.9-13.8,9.9-27.5,15.1-41.2
	c5.2-13.7,10.2-26.2,15-37.5l-1.3,3.4c-0.8,1.6-1.2,2.7-1.3,3.4l-0.6,1.2l-0.3,0.6l0.3-0.6l0.1-1l0.2,0.4l0.4-1.6l0.2,0.4l-0.2-0.4
	l0.6-1.2l0.3-0.6l2.2-3.7c0-1,0.4-1.8,1.2-2.4l1.2-2.4c1.6-3.2,3.1-5.6,4.7-7.3c1.6-1.7,3-3.1,4.3-4.2l-1.5,1.5c-1,1-1.8,2-2.4,3.1
	c-0.6,1-1.3,2-2,2.9l-0.9,1.8l-2.8,4.9c-1.7,2.9-3,5.6-4.2,8.1c-1.1,2.5-2.4,5.2-3.7,8l-0.7,2.2l0.6-1.2l1.6-4
	c1.7-3.6,3.5-7.2,5.2-10.8c1.7-3.6,3.7-7.1,5.8-10.5l-0.2-0.4l3.1-4l2.7-2.4c-0.3-0.9,0.1-1.5,1.3-1.9c2.1-0.7,3.7-0.4,4.8,1.1
	c1.2,1.4,2,2.9,2.5,4.4c0.9,2.7,0.7,7.2-0.5,13.6S241.4,53,238.2,62c-3.2,9-7.3,19.2-12.3,30.6C220.8,104,214.9,115.8,208.2,128z
	 M198.9,131.2c-0.8,2.6-1.4,5.1-1.9,7.6c-0.5,2.5-1.1,5-1.9,7.6c4.4-8.5,9.4-18.9,15.1-31.3c5.7-12.4,11-24.7,15.8-37
	C231,65.9,234.9,54.8,238,45c3.1-9.8,4-16.5,2.8-20.1l-0.2-0.4l-0.4,0.2l-0.3,0.6l0.4-0.2c-1.2,1.4-2.6,3.5-4.2,6.4
	c-1.5,2.5-3.4,6.1-5.8,10.7c-2.4,4.6-5.2,10.8-8.5,18.6c-4.1,11.3-8,23-11.9,34.9C206.1,107.5,202.4,119.4,198.9,131.2z M229.4,32.3
	c-0.3,0.1-0.9,1-1.8,2.8c-0.9,1.8-1.8,3.7-2.8,5.7c-1,2-2.3,4.8-4.1,8.4c1-2,2-4.2,3.2-6.6c1.2-2.4,2.4-4.6,3.7-6.7l0.9-1.8
	L229.4,32.3l0.2,0.4L229.4,32.3l0.7-0.8l-0.3,0.6L229.4,32.3l0.9-1.8l0.4-0.2l0.6-1.2c0.2-0.4,0.4-0.6,0.5-0.7
	c0.1-0.1,0.3-0.3,0.5-0.7c0.3-0.1,0.4-0.3,0.3-0.6l0.6-1.2c0.6-1.2,1.3-1.9,2.2-2.3l0.4-0.2c-0.6,0.2-1,0.5-1.2,0.9l1.5-1.5l0.3-0.6
	l0.3-0.6c-1.3,1.1-2.8,3-4.6,5.5c-0.9,1.3-1.7,2.4-2.3,3.3l2.1-2.7l0.3-0.6l-1.9,3.1l-0.6,1.2L229.4,32.3z M228.1,35.7l-2.2,5.2
	c0.3-1.1,0.9-2.3,1.8-3.6c0.9-1.3,1.6-2.5,2.2-3.7l0.7-0.8l0.9-1.8l1.3-1.9c0.4-0.8,0.7-1.5,1-2.1c0.3-0.6,0.6-1.3,1-2.1
	c-2.4,2.8-4.5,6.1-6.3,9.9c-1.8,3.8-3.2,6.5-3.9,8.1c0.4-0.8,0.9-1.6,1.6-2.5c0.7-0.9,1.2-2.2,1.6-4L228.1,35.7z"/>
<path d="M163.8,197.6l-0.5-0.4l2.7-1.3l-0.5,0.1l0.5-0.1l0.5-0.1l0.4-0.5l-0.1-0.5l19.6-12.2l-0.4,0.5l0.5-0.1l-0.5,0.1l0.5-0.1
	l-0.5,0.1l0.5-0.1l-0.1-0.5l1,0.3c2.9-3.9,6-6.8,9.2-8.6c3.2-1.9,5.6-3.1,7.1-3.6c3.1-0.4,5-0.5,5.7-0.3l-1.4,0.2l1.4-0.2l0.5-0.1
	l0.5-0.1c0.7,0.2,1.3,0.6,2.1,1.1l-2.4-0.1c-0.7-0.2-1.6-0.2-2.9-0.1l-3.7,1l2.8-0.4l0.5-0.1l0.9-0.1c1.6-0.2,2.8-0.2,3.8-0.1
	l0.9-0.1c1.5-3.1,2.7-4.6,3.6-4.8c1.2-0.2,3.5,0.9,6.6,3.3c0.2-1,0.7-1.5,1.7-1.7l-1.6,2.1l1.5-2.6l-0.3,1c0,0.3-0.1,0.5-0.4,0.5
	l0.4-0.5l0.1,0.9l-0.8,1.1l1.5-3.1l0.5,0.4l-1.1,2.1c-0.3,0.4-0.4,0.7-0.3,1l0.4-0.5l-0.1-0.5l-0.7,1.5c0.1,0.6,0,0.9-0.1,1
	c-0.2,0-0.2,0.3-0.1,1l-0.4,0.5l0.1,0.5l0.5-0.1l-0.5-0.4l0.5-0.1l-2.1,5.5c-0.5,1.3-1.1,3-1.9,5c-0.8,2-1.1,3.8-0.9,5.3
	c0.1,0.6,0.7,0.8,2,0.7c4.7-0.6,8.9-1.7,12.6-3.2c3.7-1.5,7-2.9,9.9-4.2c2.8-1.3,6-3.2,9.4-5.6l0.1,0.5l0.4-0.5l-0.5,0.1l0.5-0.1
	l1,0.3l-2.6,1.8l0.9-0.6l0.5-0.1l1.3-1.1l-0.4,0.5l0.5-0.1l-0.5,0.1l-0.4,0.5l0.4-0.5l0.1,0.5l-0.1-0.5l0.1,0.5l0.9-0.6l-0.5,0.1
	l0.4-0.5l0.1,0.5l-0.1-0.5l0.1,0.5l-0.1-0.5l0.1,0.5l0.5-0.1l-0.9,0.6l-0.4,0.5l0.5-0.1l-0.4,0.5c-0.3,0-0.5,0.1-0.4,0.3
	c0,0.2-0.1,0.3-0.4,0.3l-0.9,0.1l1.3-0.7l-0.3,1l-0.1-0.5l0.1,0.5l-1.7,1.7c-0.6,0.4-1.3,0.8-2.2,1.3c-0.9,0.4-1.5,0.7-1.8,0.7
	l0.1,0.5c0,0.3-0.1,0.5-0.4,0.5c-0.3,0.4-0.6,0.6-0.9,0.6c-1.5,0.8-3.8,2.7-7,5.7c-3.2,3-9.3,5.7-18.1,8.2c-1.9,0.3-3.8,0.3-5.7,0.1
	c-1.9-0.2-3.8-1.4-5.7-3.7c-1.4,1.1-3.2,2.3-5.2,3.6c-2,1.2-4.9,2.6-8.5,4c-1.2,0.2-3.6-0.1-7-0.9c-3.4-0.8-5.4-3.3-6.1-7.7
	c-0.3-2.2-0.1-4.1,0.6-5.8c-2.1,0.9-4.5,1.9-7.2,2.9c-2.7,1-5.1,2-7.2,2.9l-0.5,0.1c-0.6,0.4-1.3,0.7-2.3,0.8
	c-0.3,0-0.6,0.2-0.9,0.6L163.8,197.6z M185.3,185.2l0.8-1.1l-0.4,0.5l0.1,0.5l-0.1-0.5l0.1,0.5l-0.1-0.5L185.3,185.2z M192.3,194.2
	c3.4-0.5,6.2-1.5,8.4-3.1c2.2-1.6,3.9-3.3,5.2-5.2c1.3-1.9,2.3-3.6,2.8-5.1c0.6-1.5,0.9-2.4,0.8-2.7c-0.1-0.6-0.6-0.9-1.5-0.7
	c-2.5,0.3-5.5,2-9.1,4.8c-3.6,2.9-5.9,6.3-6.9,10.2L192.3,194.2z M207.8,172.5c0.6-0.1,1.6,0.1,2.9,0.5l0.9-0.1l-0.5,0.1l0.5,0.4
	c0-0.3,0.1-0.6,0.3-1l-1.9-0.2l-0.9,0.1l0.9-0.1l0.1,0.5l-1.5-0.3L207.8,172.5z M211.4,171.5l-0.5,0.1L211.4,171.5l0.9-0.1l0.1,0.5
	l-1.5-0.3l0.1,0.5l-0.1-0.5l0.1,0.5l-0.5-0.4l0.5,0.4l-1-0.3c-0.3,0-0.6,0-1-0.1c-0.3-0.1-0.7-0.1-1-0.1l2.4,0.1L211.4,171.5z"/>
<path d="M304.1,187.4c0.9,0.1,1.3,0.7,1.2,1.6c0-0.3-0.2,0-0.6,0.9c-0.5,0.9-1.3,1.2-2.5,1c-0.3,0-1,0.6-2.2,1.8
	c-1.1,1.3-2.8,2.4-4.8,3.5c-2.1,1.1-4.4,2.1-7.1,2.9c-2.7,0.9-5.6,1-8.6,0.6c-2.5-0.4-4.7-1.2-6.5-2.4c-1.9-1.2-2.6-3.4-2.1-6.5
	c-3,2.7-7.5,5.2-13.5,7.4c-6.1,2.2-11.6,3-16.5,2.2c-1.6-0.2-3.1-1-4.7-2.1c-1.6-1.2-2.6-2.5-3-3.8l-0.6-2c-0.1-1.6-0.1-2.7,0-3.3
	l0.9-2.7c0.9-1.5,1.5-2.6,2-3.5c0.4-0.9,1.1-1.7,1.8-2.6c-1.6,0.4-3.5,0.6-5.6,0.6c-2.1,0-3.9,0.2-5.6,0.6c-2,0.3-4,0.5-6.3,0.5
	l-1.9-0.3l1.5-0.2l1.5-0.2l-0.5-0.1l0.5,0.1l0.5,0.1l0.5-0.4l0.1-0.5l-0.1,0.5l0.1-0.5c10-2.9,17.3-5.5,21.9-7.8
	c4.6-2.3,7.3-3.4,7.9-3.3c1.2,0.2,2.5,1,3.7,2.5c1.2,1.5,1.7,2.8,1.5,4c-0.1,0.9-0.8,1.8-2.1,2.5c-1.2,0.8-2.6,1.7-4,2.7
	c-1.4,1-2.9,2.3-4.4,3.8c-1.5,1.5-2.6,3.3-3.2,5.4c2.5,0.4,6.5,0.1,12-1c5.5-1,13.1-5.7,22.6-14.1l1.8-2.1l0.4,0.5l0.5,0.1
	c0.1-0.6,0.3-0.9,0.6-0.9c0.3,0,0.5,0.2,0.6,0.6c0.1,0.3,1.6,1.7,4.4,4l-0.8,1.8l0.8,1.1c0,0.3-0.3,0.6-0.6,0.9l-0.5-0.1l0.5,0.1
	l-0.4-0.5l-1.1,0.8c-3.9,4.8-6.2,9-6.7,12.7c-0.1,0.6,0.2,0.7,0.9,0.1c0.7-0.5,1.8-0.7,3.4-0.4c5.6,0.9,10.5,0,14.7-2.7
	c4.2-2.7,6.6-4,7.3-3.9L304.1,187.4z"/>
<path d="M363.7,222.9c-0.5,0.8-1.1,1.5-1.7,2c-0.7,0.5-1.3,1-1.9,1.3c-1,0.5-1.7,0.8-2.2,0.9l-0.6,0.2c-1.1-0.6-1.5-1.4-1.3-2.4
	c0.3-0.5,0.7-0.9,1.2-1.2c0.5-0.2,1-0.8,1.5-1.6c-4-0.5-9-0.8-14.8-0.8c-5.8,0-11.4,0-16.6,0c-5.3,0-9.8,0.1-13.5,0.3
	c-3.7,0.2-5.5,0.1-5.4-0.1c-0.3-0.2-0.7-1.3-1.2-3.5c-2.4-1.4-3.8-2.4-4-2.9c-0.2-0.5-0.1-1.2,0.3-2c0.5-0.8,2.2-2.2,5.1-4.1
	c-5.1-0.1-9.7,0-13.9,0c-4.2,0.1-6.5,0.2-7,0.3c-1.4-0.8-2.6-2.3-3.6-4.6c-1-2.2-1.4-3.6-1.1-4.2c1.2-1.5,3.1-2.9,5.6-4.4
	c2.5-1.4,6-3.3,10.7-5.7l0.2-0.4l0.4,0.2c-6.2-3.6-12.3-6.2-18.3-7.8c-6-1.5-9.3-2.4-9.8-2.8l-0.4-0.2c-0.5-0.3-0.4-1.1,0.4-2.5
	l0.4,0.2l-0.6,0.2c2.6-0.7,5.6-0.9,9.1-0.7c3-0.1,6.5,0.4,10.7,1.3c4.1,1,8.8,2.6,14,4.9l0.4,0.2c1.3,0.8,2.7,1.7,3.9,2.6
	c1.3,0.9,1.9,3,1.8,6.2c-1.6,2.7-2.8,4.3-3.6,4.7c-0.8,0.4-1.6,1-2.3,1.6c2.8,0.2,6,0.6,9.6,1.3c3.6,0.7,7,1.4,10.2,2.2
	c3.2,0.8,6,1.5,8.5,2.3c2.5,0.7,4.1,1.3,4.9,1.8c0.4,0.6,0.5,1.2,0.3,1.8c-0.2,0.6-0.4,1.1-0.5,1.3l-0.2,0.4
	c-0.5-0.3-1.5-0.5-2.9-0.6c-1.8,0-6,0-12.4-0.2c-0.1,0.7-0.3,1.5-0.8,2.3c4.8-0.1,9.6,0,14.5,0.3c3.9,0.1,8.1,0.6,12.5,1.4
	c4.4,0.8,8.1,2,11.1,3.8c1.3,0.8,2.4,1.8,3.2,3C364.3,220.7,364.4,221.8,363.7,222.9z"/>
<path d="M365.1,267.1c-1.7-2.2-2.3-5.3-1.8-9.3c-4.1,0.4-10.3,0.8-18.7,1.1c-8.4,0.4-18.4,0.6-30.1,0.7c-11.6,0.1-24.4-0.2-38.2-1
	c-13.9-0.8-28.1-2.2-42.8-4.3c-9.9-1-18.2-2.5-24.7-4.3c-6.6-1.8-12-3.7-16.2-5.6c-4.9-2.2-8.9-4.6-12.1-7.2c-1-1.2-1.1-2.6-0.3-4.2
	c0.8-1.6,1.8-2.8,3-3.8c3.2-2.5,10.3-3.4,21.3-2.8c11,0.6,23.6,2,37.8,4.3c14.2,2.3,28.9,5.1,44,8.4c15.1,3.4,28.3,6.6,39.5,9.9
	c4.3-0.1,8.5-0.3,12.6-0.6c4.2-0.3,8.2-0.5,12-0.7c-1.3-0.2-2.8-0.6-4.5-1.2c-1.7-0.7-3-1.6-4-2.9c-1.5-2-2.4-4.4-2.6-7.2
	c-0.2-2.8,0.9-5.2,3.4-7.1c2.5-1.9,5.2-3.3,8.2-4c3-0.7,5.8-1,8.5-0.9c2.7,0.1,5,0.4,6.9,0.9c1.9,0.5,3.2,0.9,3.9,1.2
	c0.8,1,1.2,2.6,1.4,4.9c0.2,2.3-0.4,3.9-1.6,4.8c-1.5,1.2-3.8,1.1-7-0.2c-3.2-1.3-7.5-1.1-12.8,0.7l-0.7,0.6
	c1.3,1.7,3.8,3.2,7.3,4.4c3.5,1.2,7,2.3,10.5,3.2c5.6,1.6,10.1,2.5,13.4,2.7c3.3,0.2,5.8,0.2,7.4-0.1c1.6-0.2,2.7-0.5,3.3-0.8
	c0.6-0.3,1.3,0.1,2,1.1c0.6,0.7,0.7,2.3,0.4,4.7c-0.3,2.4-0.7,3.8-1.2,4.2c0.7-0.6,0.3-0.7-1.5-0.4c-1.7,0.3-3.9,0.8-6.6,1.5
	c-2.7,0.7-5.2,1.2-7.6,1.7c-2.4,0.5-3.7,0.6-3.9,0.3l0.3,0.4c-0.2-0.2,0.2,0.8,1.3,3.2c1.9,2.5,4.3,5,7.3,7.5
	c2.9,2.5,5.8,4.6,8.6,6.4c2.8,1.8,5.2,3.4,7.3,4.8c2.1,1.4,3.2,2.2,3.4,2.4c0.4,0.5,0.4,1,0,1.5c-0.4,0.5-0.7,0.9-1,1l0.4-0.3
	l-0.4,0.3l-1.6-0.5c-0.6-0.3-2.1-0.8-4.5-1.6c-2.4-0.8-5.2-1.9-8.6-3.4c-3.4-1.5-6.9-3.5-10.5-5.9
	C370.9,273.5,367.7,270.6,365.1,267.1z M185,234.2c0.7-0.1,1.8-0.6,3.2-1.3c1.4-0.7,2.6-1,3.5-0.9c-0.4-0.1-0.7,0-0.8,0.1
	c-0.1,0.1-0.4,0.1-0.8,0.1l-1.4,0.5c-1.9,0.7-3.3,1.4-4.3,2.1L185,234.2z M184.3,234.2c1.4-0.3,2.6-0.8,3.5-1.6
	C186.5,232.9,185.3,233.4,184.3,234.2z M283.5,249.4c5.6,0,11.2,0,16.9,0c5.7-0.1,11.3-0.1,16.9,0l-0.3-0.4
	c-7.8-1.9-18.1-4.1-30.8-6.8s-25.7-4.9-38.8-6.8c-13.2-1.9-25.5-3.1-36.9-3.5c-11.4-0.4-19.7,0.5-24.6,2.7l1.8-0.8l0.4-0.3l-0.4,0.3
	l-1.8,0.8c-0.2,0.2-0.4,0.2-0.5,0.1c-0.1-0.1-0.3-0.1-0.5,0.1l-0.4,0.3l-0.2,1.3c0.9,0.1,1.6,0.5,2.2,1.3c1.4,1.3,5.2,2.7,11.3,4.3
	c6.2,1.6,13.7,2.9,22.6,3.9c8.9,1,18.9,1.9,29.8,2.8C261.3,249.6,272.3,249.8,283.5,249.4z M310.6,247.5l-0.4,0.3L310.6,247.5
	l-0.7-0.1L310.6,247.5z"/>
<path d="M456.9,392.5l-11.4-10.8l-0.2,0l0.3,15.2l-6.8-0.7l3.4-14.8l-0.2,0l-13,8.2l-2.9-6.7l14.6-4.4l0-0.2l-13.3-8l4.2-5.3
	l11.1,10.8l0.2,0l-0.3-14.9l6.8,0.7l-3.5,14.4l0.2,0l13.2-8l2.8,6.4l-14.5,4.6l0,0.2l13.2,7.6L456.9,392.5z"/>
<path d="M351.3,440c0.7-0.7,1.2-1.3,1.7-2c0.5-0.7,1-1.3,1.7-2c1.1-1.5,2.5-3.2,4-5c1.6-1.8,3-3.3,4.3-4.6c6-5.9,13.1-9.7,21.2-11.3
	c8.1-1.6,15.9,1.4,23.4,8.9c5.5,5.6,10.2,15.5,14,29.8c3.8,14.3,5.6,33.4,5.5,57.4c7.4-7.3,14.9-11.9,22.7-13.8
	c7.8-2,15.2,0.6,22.2,7.8c6.8,6.9,11,14.9,12.5,24c1.5,9.1,1.6,18,0.3,26.8c-1.3,8.7-3.2,16.7-5.8,23.9c-2.6,7.2-4.6,12.3-5.9,15.4
	l-0.7-0.7l0,0.7c-0.4,1.3-0.9,2.4-1.3,3.3c-0.2,0.7-0.5,1.3-0.8,1.8c-0.3,0.5-0.6,1.2-0.8,1.8c-2.7,4.9-5.2,8.7-7.5,11.4
	c-2.3,2.8-4.3,4.9-5.9,6.4l-0.3,0.3l-0.3,0.3c-0.2,0.2-0.4,0.3-0.5,0.2c-0.1-0.1-0.3-0.1-0.5,0.2l-1.3,1.3c-0.2,0.2-0.5,0.4-0.8,0.5
	c-0.3,0.1-0.8,0.5-1.5,1.2l-0.7-0.7c2.9-3.3,6-7.1,9.2-11.4c3.2-4.3,6-8.4,8.2-12.4c0.4-0.4,0.7-0.9,0.7-1.3c0-0.4,0.2-0.9,0.7-1.3
	c0.2-0.7,0.6-1.3,1-2c0.4-0.7,0.7-1.2,0.7-1.7l1.3-3.3l0.7-1.3l-0.3,0.3c0-0.4,0.1-0.8,0.3-1c0.2-0.2,0.3-0.6,0.3-1l1.7-4.3
	c0.2-0.7,0.8-2.8,1.7-6.3c0.9-3.5,1.8-8,2.7-13.3l0-2l0.7-6.6l-0.3,0.3l0-2.7l0-1.3l0.3,0.3c0.5-7.5-0.2-15.4-2.2-23.6
	c-1.9-8.2-5.2-15.1-9.9-20.7c-7.3-4.7-14.5-5.4-21.6-2.1c-7.1,3.3-13.6,7.6-19.4,12.8c-0.7,12.2-2.1,25.2-4.2,39.2
	c-2.1,13.9-4.6,27.7-7.7,41.3c-3.1,13.6-6.4,26.6-10,39c-3.6,12.4-6.9,23.1-9.8,32.2c0,0.9-0.3,1.7-0.8,2.5c-0.6,0.8-1,1.7-1.2,2.8
	c-1.6,4.6-3.5,9.8-5.7,15.6c-2.3,5.7-4.4,9.6-6.4,11.6c-0.4,0.4-1.1,0.9-2,1.3c-0.9,0.4-2.2,0.2-4-0.7c-6-4.7-9.7-11.4-11.2-20
	c-1.5-8.7-1.8-17.9-1-27.8c0.8-9.9,2.4-19.6,4.8-29.2c2.4-9.6,4.5-17.8,6.3-24.4c3.2-13.7,8.3-26.6,15.3-38.6
	c7-12,14.4-23.1,22-33.3c2.7-2.6,4.4-7.1,5.1-13.3c0.7-6.2,0.8-12.8,0.3-19.8c-0.5-7-1.3-13.7-2.4-20.1c-1.1-6.4-2-11.2-2.9-14.3
	c-0.4-2.7-1.6-7-3.4-13.1c-1.8-6.1-5.2-11.6-10-16.5c-3.1-3.1-6.9-5-11.4-5.5c-4.5-0.6-10.4,2.7-17.5,9.7
	c-7.8,7.7-15.2,16.3-22.1,25.8c-6.9,9.5-13.1,18.9-18.6,28.3c-5.5,9.4-10.4,18.3-14.6,26.7c-4.3,8.4-7.7,15.2-10.4,20.5l-0.7-0.7
	c-0.4,0.4-0.7,1.1-0.7,2c-1.1,1.1-2.2,1.1-3.3,0c0.4-0.4,1.2-2.3,2.4-5.6c2.5-6.4,7.5-18,15-34.6C323,481.8,335,462.3,351.3,440z
	 M412.8,553c0.2-2,0.4-3.9,0.4-5.6c0-1.8,0.1-3.7,0.4-5.6l1.1-9.6c-4.9,6.6-9.9,14.1-15.1,22.5c-5.1,8.4-9.5,17-13.1,25.8
	c-2.9,7.7-5.8,17.1-8.6,28c-2.8,10.9-4.9,22.1-6.3,33.4c-1.4,11.3-1.7,21.8-0.8,31.6c0.8,9.8,3.6,17.2,8.2,22.3
	c1.1-2.4,2.9-7.6,5.4-15.6c2.5-8,5.3-18.1,8.5-30.5c3.2-12.4,6.5-26.7,10.1-43C406.2,590.4,409.5,572.5,412.8,553z M471,593.3
	c-0.2,0.2-0.3,0.5-0.3,1c-0.4,0.4-0.7,0.9-0.7,1.3C470.5,594.2,470.8,593.5,471,593.3z M472.4,589.9c-0.2,0.2-0.3,0.5-0.3,1
	c0.2-0.2,0.3-0.4,0.2-0.5C472.1,590.3,472.1,590.2,472.4,589.9z"/>
<path d="M249.2,537.9c-0.9,0.3-1.5,0-1.8-0.9c0.1,0.3,0.2,0,0.2-1c0-1,0.6-1.7,1.8-2c0.3-0.1,0.7-1,1.2-2.6c0.5-1.6,1.4-3.4,2.8-5.3
	c1.4-1.9,3.1-3.8,5.1-5.8c2-1.9,4.5-3.4,7.5-4.3c2.4-0.7,4.7-1,6.9-0.7c2.2,0.3,3.8,1.9,4.7,4.9c1.5-3.7,4.4-7.9,8.9-12.6
	c4.4-4.7,9.1-7.8,13.9-9.3c1.5-0.5,3.2-0.5,5.1-0.1c1.9,0.4,3.4,1.1,4.3,2.1l1.5,1.5c0.8,1.4,1.2,2.4,1.4,3l0.4,2.8
	c-0.1,1.7-0.2,3-0.2,4c0,1-0.2,2-0.5,3.1c1.3-1.1,2.9-2.1,4.7-3c1.9-0.9,3.4-1.9,4.7-3c1.6-1.2,3.4-2.2,5.4-3.2l1.8-0.6l-1.2,0.9
	l-1.2,0.9l0.4-0.1l-0.4,0.1l-0.4,0.1l-0.3,0.6l0.1,0.4l-0.1-0.4l0.1,0.4c-7.7,7-13.1,12.5-16.2,16.6c-3.2,4.1-5,6.2-5.6,6.4
	c-1.2,0.4-2.7,0.2-4.4-0.6c-1.7-0.8-2.8-1.8-3.1-3c-0.3-0.9,0-2,0.7-3.2c0.8-1.2,1.6-2.6,2.4-4.2c0.8-1.6,1.6-3.4,2.3-5.4
	c0.7-2,0.8-4.1,0.5-6.3c-2.4,0.7-5.8,2.8-10.4,6.2c-4.5,3.4-9.2,10.9-14.1,22.6l-0.6,2.7l-0.6-0.3l-0.4,0.1c0.2,0.6,0.1,0.9-0.2,1
	c-0.3,0.1-0.6,0-0.8-0.2c-0.2-0.3-2.1-0.8-5.7-1.7l-0.1-1.9l-1.2-0.6c-0.1-0.3,0-0.7,0.2-1l0.4-0.1l-0.4,0.1l0.6,0.3l0.6-1.2
	c1.4-6,1.5-10.8,0.4-14.4c-0.2-0.6-0.5-0.5-0.9,0.3c-0.4,0.8-1.4,1.4-2.9,1.9c-5.4,1.7-9.4,4.7-12,8.9s-4.2,6.5-4.8,6.7L249.2,537.9
	z"/>
<path d="M226.5,568.1c-3.5-0.1-5.3-1.4-5.4-3.9c-0.1-0.9,0.3-2.1,1.2-3.6c0.8-1.5,1.8-3,3-4.7c1.1-1.7,2.5-3.1,3.9-4.3
	c1.5-1.2,2.9-1.8,4.1-1.9c1.6-0.1,2.9,0.4,4.1,1.6c1.2,1.2,1.8,2.2,1.9,3.2c0.1,1.6-0.4,3.1-1.6,4.6c-1.1,1.5-2.5,3.1-3.9,4.7l5-8.8
	c-1.7,2.3-3.4,5-5.1,8.1C232,566.2,229.6,567.8,226.5,568.1z M264.2,520.7c-0.8,1.9-1.5,3.4-2.1,4.4c-0.6,1-1.1,1.8-1.7,2.5
	c8-2.8,14.4-5.1,19.3-7c4.9-1.9,7.6-2.9,8.3-2.9c0.6,0,0.9-0.1,0.7-0.3c-0.2-0.1-0.2-0.1-0.2,0.3c0,0.3-0.1,0.6-0.4,1
	c-0.3,0.3-1.4,1-3.4,2.1c-2,1.1-5.1,2.8-9.3,5.1c-4.2,2.3-10.1,5.9-17.6,10.9c-1.5,1-4,2.5-7.5,4.5c-3.5,2-6.5,3-9,3.2l1,0.4
	c-0.6-0.3-1.6-0.6-2.9-1c-1.3-0.4-2.2-1.8-2.7-4.3c0.5-2.5,1.4-4.8,2.8-6.8c1.4-2,3-3.8,4.8-5.5c1.8-1.7,3.3-3.1,4.7-4.1
	c1.3-1,2.2-1.7,2.4-2.1c-5.5,1.9-10.7,3.8-15.6,5.5c-4.9,1.7-8.3,2.7-10.2,2.8c-1.6,0.1-2.4-0.5-2.5-1.7c0-0.3,0.1-0.6,0.4-1
	c-0.3,0.6,1.5-0.2,5.2-2.5c3.8-2.3,10.9-6.5,21.5-12.5l0.5,0c1,0.2,2.1,0.3,3.3,0c1.2-0.2,2.5-0.2,3.8,0.2c1.3,0.4,2.5,1.2,3.7,2.3
	c1.2,1.2,2,3.2,2.5,6L264.2,520.7z"/>
<path d="M163,520.1c-0.3-0.1-0.8-0.6-1.6-1.7l-0.1,0.5c0.3,0.1,1.1-0.5,2.4-1.7c1.3-1.2,3.7-2.5,7.1-3.8c3.4-1.3,8-2.4,13.7-3.4
	c5.7-0.9,13-1.2,21.9-1c0.3,0.1,3-2.7,8.1-8.1c5.1-5.5,15.1-15.4,29.9-29.6c7.9-7.2,17.2-14.9,27.8-23.1c10.6-8.2,21.1-15.5,31.5-22
	c10.3-6.5,19.8-11.7,28.5-15.8c8.6-4.1,14.8-5.8,18.5-5.1c1.5,0.3,2.6,1.2,3.1,2.9c0.5,1.7,0.6,3.3,0.4,4.8
	c-0.7,4-5.3,9.6-13.9,16.7c-8.5,7.1-18.9,14.7-31.1,22.8c-12.2,8.1-25,15.9-38.4,23.6c-13.4,7.7-25.3,14-35.7,18.9
	c-3.8,3.8-7,7.1-9.6,9.8c-2.5,2.7-4.7,4.9-6.6,6.5c1.9,0.3,3.5,1.3,5,3c1.5,1.7,2,3.8,1.5,6.2c-0.6,3.4-2.4,5.8-5.5,7.2
	c-3.1,1.4-5.2,2.4-6.3,3.2c5.9,1,10.4,1.8,13.7,2.4c3.2,0.6,5.6,1.2,7.1,1.9c1.5,0.7,2.3,1.4,2.5,2.1c0.2,0.7,0.2,1.8-0.1,3.3
	c-0.6,3.7-2,5.4-4.2,5c-1.9-0.3-4.4-0.9-7.6-1.8c-3.2-0.9-8.3-1.9-15.4-3.1c-2.2-0.4-4.9-0.8-8.1-1.4c-3.2-0.6-6.2-0.4-8.9,0.4
	l-2,0.6c-0.6-0.1-1.5-0.4-2.7-0.9c-1.2-0.5-2-1.9-2.6-4.3c1.1-2.7,2.1-4.2,2.9-4.5c0.9-0.3,1.6-0.8,2.4-1.3l5.7-2.8
	c2.4-1.2,4.8-2.2,7.2-3c2.4-0.9,4.9-1.9,7.7-3l-0.8-1.1c-4.9-0.9-10.1-1.3-15.5-1.3c-5.4,0-10.4,0.2-14.9,0.5
	c-4.5,0.3-8.3,0.7-11.4,1.1c-3.1,0.4-4.8,0.6-5.1,0.5L163,520.1z M275.6,456.6c-6.4,5.9-12.6,11.6-18.5,17.1
	c-5.9,5.5-11.5,10.8-16.8,15.9l2-0.6c1.1-0.8,3-1.9,5.8-3.3l-0.5-0.1l0.5,0.1l-0.5-0.1c6.9-4.8,15.5-10.3,26-16.5
	c10.4-6.1,20.8-12.5,31.2-19.2c10.4-6.6,19.6-13.3,27.8-20c8.2-6.7,13.4-13,15.7-19l-0.8,1.8l-0.1,0.5l0.5,0.1l-0.4-0.5l1.2-1.7
	l0.2-0.9l0.1-0.5l-0.3-1c-0.7,0.2-1.5,0.2-2.4,0.1c-1.9-0.3-5.2,0.8-10.1,3.3c-4.9,2.5-10.6,5.9-17.3,10.1
	c-6.6,4.3-13.7,9.4-21.3,15.4C290.2,443.6,282.8,449.9,275.6,456.6z M240.3,489.6c0.3,0.1,0.5-0.1,0.5-0.4L240.3,489.6z
	 M248.1,485.7l0.1-0.5L248.1,485.7l0.1-0.5L248.1,485.7z M349.4,410.7c-0.2,0.9-0.6,1.9-1.4,2.9c-0.8,1-1.3,2.1-1.5,3.3
	c0.1-0.3,0.2-0.5,0.4-0.7c0.2-0.1,0.3-0.3,0.4-0.7l0.7-1.3c0.7-0.5,1.2-1.1,1.3-1.9c0.1-0.8,0.4-1.6,0.9-2.5L349.4,410.7z
	 M349.9,410.3l0.5,0.1c-0.4,0.6-0.7,1.2-0.8,1.8c-0.1,0.6-0.5,1.2-1.2,1.7c0.4-0.3,0.7-0.8,1-1.5
	C349.6,411.6,349.8,410.9,349.9,410.3z"/>
<path d="M177.6,502.4c1.4,0.7,2.8,1.7,4.4,2.8c1.5,1.1,3,2.8,4.3,4.9l0.2,0.6c0,1.4-0.1,2.9-0.2,4.4c-0.1,1.5-0.5,3-1.2,4.4
	c-0.6,1.1-1.6,2.1-3.2,3.1c2.2,0.5,4.9,1,7.9,1.7c3,0.7,5.6,1.2,7.9,1.7l0.4,0.2l3.8,0.9l1.3,0.7l-1.1,0l-1.9-0.5l-0.4-0.2l-0.6,0.2
	l-0.2,0.4l-23.1-1.4l0.6-0.2l-0.4-0.2l0.4,0.2l-0.4-0.2l-0.2,0.4l-0.6-0.9c-4.4,1.6-8.5,2.2-12.3,1.8c-3.8-0.4-6.5-0.8-8.1-1.3
	c-2.5-1.3-4.1-2.3-4.8-3l1.3,0.7L150,523l-0.4-0.2l-0.4-0.2c-0.4-0.6-0.7-1.3-1-2.1l1.9,1.5c0.4,0.6,1.2,1.1,2.3,1.7l3.6,1.3
	l-2.5-1.3l-0.4-0.2l-0.8-0.4c-1.4-0.7-2.4-1.4-3.1-2.2l-0.8-0.4l0.8,0.4l0.4,0.2l-0.4-0.2l0.8,0.4l1.9,1.5c-0.3-0.1-0.5-0.4-0.7-0.6
	c-0.2-0.3-0.4-0.5-0.7-0.6l-0.4-0.2l0.4,0.2l-0.2-0.6l-0.2,0.4l-0.2-0.6l-0.2,0.4l0.2-0.4l-0.2,0.4l-0.2-0.6l-1-1.1
	c-1.2-1-2.1-2.1-2.5-3.4c-0.6-0.3-1.2-0.4-1.9-0.5c-0.7,0-1.3-0.2-1.9-0.5c-0.6-0.3-1.2-1.2-2-2.9c-0.7-1.6-0.4-3.8,1.1-6.6
	c1.3-2.5,4.3-4.8,8.9-7c-1.7-0.9-3.8-1.6-6.5-2.3c-2.6-0.7-5.3-1.2-7.9-1.7c-2.6-0.5-4.9-0.9-7-1.3c-2.1-0.4-3.4-0.7-4-1
	c-0.3-0.1-0.3-0.4-0.2-0.6l-0.4-0.2c0-0.7,0.2-1.5,0.7-2.3l0.4,0.2l1.1,0c-0.3-0.1,0.8-0.2,3.3-0.2c2.5,0,5.4,0.2,8.8,0.4
	c3.4,0.2,6.9,0.5,10.4,0.9c3.5,0.4,6.2,1.1,8.2,2.1c1.1,0.6,2.5,1,4.1,1.3c1.6,0.3,2.7,1.7,3.2,4c1.9,1,4.1,1.7,6.4,2
	C172.7,500.3,175.1,501.1,177.6,502.4z M178.1,513.8c-5.6-2.9-11.2-4.7-16.8-5.3c-5.7-0.7-9.1,0.1-10.2,2.4
	c-0.4,0.8-0.6,1.5-0.6,2.1c0.1,0.6,0,1-0.1,1.3c-0.1,0.3-0.6,0.5-1.5,0.8c0.8,1.1,2.2,2.2,4.2,3.2c1.9,1,4.2,1.6,6.8,1.7
	c2.6,0.1,5.2-0.1,7.8-0.7c2.6-0.6,4.9-1.4,6.8-2.3C176.3,515.9,177.5,514.9,178.1,513.8z M177.1,524.9l-0.6,0.2l1.7-0.2l-0.6,0.2
	l0.2-0.4l-0.2,0.4l0.2-0.4L177.1,524.9z"/>
<path d="M139.8,481.9c2.3,2.6,2.7,4.5,1.3,5.7c-1.6,1-3.8,1.8-6.6,2.4c-2.8,0.6-6.8,1.3-12,2.1l-0.7,0c2.3,2.6,5.3,5.1,9.2,7.6
	c3.8,2.5,7.7,4.5,11.4,6.2c3.8,1.7,7.1,3.2,9.9,4.5c2.8,1.3,4.3,2,4.5,2.3c0.6,0.7,0.3,1.6-0.8,2.6l-0.3-0.4l0.7,0
	c-5.9-1-11-2.2-15.3-3.5c-4.2-1.3-8.7-3.1-13.5-5.4c-4.7-2.3-9.1-5.2-13.1-8.8l-0.3-0.4c-1-1.2-1.9-2.5-2.8-3.8
	c-0.8-1.4-0.8-3.5,0.1-6.3c1.9-1.7,3.3-2.7,4.4-3.2c1-0.5,2-0.9,2.9-1.3c-3.5-1.1-7.9-2.5-13.4-4.2c-5.4-1.7-11.8-4.7-19.1-9.2
	c-1-1.2-2-3-3-5.5c-0.9-2.5-0.4-4.7,1.7-6.5c3.3-2.5,6.1-3.8,8.6-4.1c2.5-0.3,4.4-0.8,5.8-1.6c0.2-0.2,0.3-0.4,0-0.7l-0.9-1.1
	c-0.4-0.5-1-1-1.7-1.6c-0.7-0.6-1.4-1.3-2-2c-6.8-4.9-12.7-9-17.7-12.3c-5-3.3-7.7-5.2-8.1-5.7c-0.8-0.9-0.8-1.8,0.2-2.7
	c-0.7,0.6-0.1,1.1,1.9,1.5c2,0.3,4.7,1.1,8.2,2.2c3.5,1.1,7.4,2.8,11.7,5.1c4.3,2.3,8.3,5.5,12,9.8c1.5,1.6,2.9,4,4.2,6.9l0.3,0.4
	c-0.9,3.3-2,5.5-3.4,6.8c-2.3,1.6-4.3,2.7-6,3.1c-1.7,0.5-3.1,0.8-4.2,0.9c1.3,0.5,3,1.4,5,2.5c2,1.1,4.1,1.9,6,2.2
	c13.5,4.9,22.5,8,27,9.4c4.6,1.4,7.1,2.3,7.5,2.8C140,479.3,140.2,480.4,139.8,481.9z"/>
<path d="M12.1,359.2l13.1,8.6l0.2,0l-3-14.9l6.8-0.5l-0.8,15.2l0.2,0l11.3-10.4l4,6l-13.6,6.9l0,0.2l14.5,5.5l-3.2,5.9l-12.8-8.7
	l-0.2,0l2.9,14.6l-6.8,0.5l0.9-14.8l-0.2,0l-11.5,10.2l-3.9-5.9l13.5-7.1l0-0.2l-14.4-5.1L12.1,359.2z"/>
</svg>
