<?xml version="1.0" encoding="utf-8"?>
<!-- Generator: Adobe Illustrator 21.0.0, SVG Export Plug-In . SVG Version: 6.00 Build 0)  -->
<svg version="1.1" id="Layer_1" xmlns="http://www.w3.org/2000/svg" xmlns:xlink="http://www.w3.org/1999/xlink" x="0px" y="0px"
	 viewBox="0 0 49.4 49.4" style="enable-background:new 0 0 49.4 49.4;" xml:space="preserve">
<style type="text/css">
	.st0{fill:#FFFFFF;}
</style>
<g>
	<path class="st0" d="M24.7,0C11.1,0,0,11.1,0,24.7s11.1,24.7,24.7,24.7s24.7-11.1,24.7-24.7S38.3,0,24.7,0z M24.7,47.6
		C12,47.6,1.8,37.3,1.8,24.7S12,1.8,24.7,1.8S47.6,12,47.6,24.7S37.3,47.6,24.7,47.6z"/>
	<path class="st0" d="M35.3,14.1H14.1c-0.5,0-0.9,0.4-0.9,0.9s0.4,0.9,0.9,0.9h21.2c0.5,0,0.9-0.4,0.9-0.9S35.7,14.1,35.3,14.1z"/>
	<path class="st0" d="M35.3,23.8H14.1c-0.5,0-0.9,0.4-0.9,0.9s0.4,0.9,0.9,0.9h21.2c0.5,0,0.9-0.4,0.9-0.9S35.7,23.8,35.3,23.8z"/>
	<path class="st0" d="M35.3,33.5H14.1c-0.5,0-0.9,0.4-0.9,0.9s0.4,0.9,0.9,0.9h21.2c0.5,0,0.9-0.4,0.9-0.9S35.7,33.5,35.3,33.5z"/>
</g>
</svg>
