<?xml version="1.0" encoding="utf-8"?>
<!-- Generator: Adobe Illustrator 21.0.0, SVG Export Plug-In . SVG Version: 6.00 Build 0)  -->
<svg version="1.1" id="Layer_1" xmlns="http://www.w3.org/2000/svg" xmlns:xlink="http://www.w3.org/1999/xlink" x="0px" y="0px"
	 viewBox="0 0 39 39" style="enable-background:new 0 0 39 39;" xml:space="preserve">
<style type="text/css">
	.st0{fill:#FFFFFF;}
</style>
<g>
	<path class="st0" d="M19.5,0C8.8,0,0,8.8,0,19.5S8.8,39,19.5,39S39,30.3,39,19.5S30.3,0,19.5,0z M19.5,37.6
		c-10,0-18.1-8.1-18.1-18.1S9.5,1.4,19.5,1.4s18.1,8.1,18.1,18.1S29.5,37.6,19.5,37.6z"/>
	<path class="st0" d="M27.9,11.1H11.1c-0.4,0-0.7,0.3-0.7,0.7s0.3,0.7,0.7,0.7h16.8c0.4,0,0.7-0.3,0.7-0.7S28.2,11.1,27.9,11.1z"/>
	<path class="st0" d="M27.9,18.8H11.1c-0.4,0-0.7,0.3-0.7,0.7s0.3,0.7,0.7,0.7h16.8c0.4,0,0.7-0.3,0.7-0.7S28.2,18.8,27.9,18.8z"/>
	<path class="st0" d="M27.9,26.5H11.1c-0.4,0-0.7,0.3-0.7,0.7s0.3,0.7,0.7,0.7h16.8c0.4,0,0.7-0.3,0.7-0.7S28.2,26.5,27.9,26.5z"/>
</g>
</svg>
