<?xml version="1.0" encoding="utf-8"?>
<!-- Generator: Adobe Illustrator 21.0.0, SVG Export Plug-In . SVG Version: 6.00 Build 0)  -->
<svg version="1.1" id="Layer_1" xmlns="http://www.w3.org/2000/svg" xmlns:xlink="http://www.w3.org/1999/xlink" x="0px" y="0px"
	 viewBox="0 0 264.7 229.6" style="enable-background:new 0 0 264.7 229.6;" xml:space="preserve">
<style type="text/css">
	.st0{fill:#FFFFFF;}
</style>
<path class="st0" d="M179.7,0C146.9,0,120,28,120,62.5v1.9c-33.7-4.8-64.8-23.1-86.6-51.2c-1.7-2.3-4.3-3.6-7.2-3.6l-0.7,0.1
	c-3,0.2-5.8,1.9-7.3,4.7c-5.2,9.5-8,20.3-8,31.2c0,10.2,2.4,20,6.7,28.7c-0.8,0.2-1.7,0.6-2.5,1c-2.8,1.6-4.6,4.5-4.6,7.8v0.8
	c0,18.4,7.7,35.3,20.2,46.9l-0.2,0.1c-2.1,2.4-2.8,5.8-1.9,8.9c5.3,17.5,17.6,31.4,33.2,38.4c-12.3,6.3-25.9,9.6-40,9.6
	c-3.7,0-7.3-0.2-11-0.6L9,187.1c-3.8,0-7.2,2.4-8.5,6c-1.5,4,0,8.4,3.5,10.8c24.7,16.7,53.3,25.5,82.6,25.5
	c57.7,0,93.7-28.7,113.8-52.7c24.9-29.8,39.2-69.2,39.2-108.2v-2.6c9.2-7.6,17.1-16.7,23.6-27c2.2-3.4,1.8-7.9-0.8-11
	c-1.7-2-4.3-3.1-6.9-3.1c-0.6,0-1.1,0.1-1.7,0.2c1.5-3,2.8-6.2,3.7-9.4c1.1-3.7-0.1-7.6-3.1-10c-1.7-1.3-3.6-1.9-5.6-1.9
	c-1.7,0-3.3,0.5-4.8,1.5c-7.6,4.8-15.8,8.3-24.4,10.6C208.7,5.7,194.4,0,179.7,0z M179.7,9.2c14.5,0,27.6,6.5,36.9,16.8
	c11.5-2.4,22.3-6.8,32.1-12.9C245,25.5,237,36,226.5,42.6c10.3-1.3,20-4.2,29-8.4c-6.7,10.7-15.3,20.1-25.2,27.6
	c0.1,2.3,0.1,4.6,0.1,6.9c0,70.4-50.8,151.7-143.8,151.7c-28.6,0-55.1-8.8-77.5-24c3.9,0.5,8,0.7,12.1,0.7
	c23.6,0,45.5-8.5,62.7-22.8c-22.1-0.5-40.8-15.9-47.2-37.1c3.1,0.6,6.2,1,9.6,1c4.6,0,9-0.6,13.3-1.9C36.5,131.5,19,109.9,19,84.1
	v-0.6c6.8,3.9,14.6,6.3,22.9,6.6c-13.5-9.6-22.5-25.8-22.5-44.4c0-9.7,2.6-18.9,6.9-26.8c25,32.3,62.2,53.5,104.2,55.7
	c-0.9-3.9-1.4-8-1.4-12.1C129.1,33.1,151.8,9.2,179.7,9.2z"/>
</svg>
