<?xml version="1.0" encoding="utf-8"?>
<!-- Generator: Adobe Illustrator 21.0.0, SVG Export Plug-In . SVG Version: 6.00 Build 0)  -->
<svg version="1.1" id="Layer_1" xmlns="http://www.w3.org/2000/svg" xmlns:xlink="http://www.w3.org/1999/xlink" x="0px" y="0px"
	 viewBox="0 0 229.6 229.6" style="enable-background:new 0 0 229.6 229.6;" xml:space="preserve">
<path d="M168.4,111.8L76.6,50.9c-0.6-0.4-1.4-0.7-2.2-0.7c-1.8,0-2.8,1.3-2.8,3.5v10.8l0.1,7.2v96.9v7.2h-0.1v0.2
	c0,2.2,0.9,3.4,2.7,3.4c0.8,0,1.7-0.3,2.4-0.8l91.3-62.1c1.7-1.1,2.3-2.1,2.3-2.5C170.4,113.7,169.9,112.7,168.4,111.8z
	 M172.1,122.4l-91.5,62.3c-2,1.3-4.2,1.9-6.2,1.9c-5.2,0-9.8-4-9.8-10.5v-7.4h0.1v-97h-0.1v-18c0-6.6,4.6-10.7,9.9-10.7
	c2,0,4.1,0.6,6.1,1.9l91.6,60.8C179.4,110.3,179.2,117.8,172.1,122.4z M222.4,43c0-19.8-16.1-35.9-35.9-35.9H43
	C23.2,7.2,7.2,23.2,7.2,43v143.5c0,19.8,16.1,35.9,35.9,35.9h143.5c19.8,0,35.9-16.1,35.9-35.9V43H222.4z M186.5,229.6H43
	c-23.7,0-43-19.3-43-43V43C0,19.3,19.3,0,43,0h143.5c23.7,0,43,19.3,43,43v143.5C229.6,210.3,210.3,229.6,186.5,229.6z"/>
</svg>
